<?xml version="1.0" encoding="UTF-8" standalone="no"?>
<svg
   width="203"
   height="100"
   viewBox="0 0 203 100"
   fill="none"
   version="1.1"
   id="svg40"
   sodipodi:docname="age_rating_icon.svg"
   inkscape:version="1.4 (86a8ad7, 2024-10-11)"
   xmlns:inkscape="http://www.inkscape.org/namespaces/inkscape"
   xmlns:sodipodi="http://sodipodi.sourceforge.net/DTD/sodipodi-0.dtd"
   xmlns="http://www.w3.org/2000/svg"
   xmlns:svg="http://www.w3.org/2000/svg">
  <sodipodi:namedview
     id="namedview42"
     pagecolor="#ff0000"
     bordercolor="#000000"
     borderopacity="0.25"
     inkscape:showpageshadow="2"
     inkscape:pageopacity="0"
     inkscape:pagecheckerboard="0"
     inkscape:deskcolor="#d1d1d1"
     showgrid="false"
     inkscape:zoom="4"
     inkscape:cx="74.999999"
     inkscape:cy="17.875"
     inkscape:window-width="1920"
     inkscape:window-height="1009"
     inkscape:window-x="-8"
     inkscape:window-y="-8"
     inkscape:window-maximized="1"
     inkscape:current-layer="g30" />
  <g
     clip-path="url(#clip0_710_1225)"
     id="g10"
     transform="matrix(0.63423858,0,0,0.63423858,0.51,18.288071)">
    <rect
       width="90"
       height="100"
       rx="3"
       fill="#000000"
       fill-opacity="0.4"
       id="rect2"
       x="0"
       y="0" />
    <path
       d="m 63.4239,21.7214 c 3.57,3.1162 5.3549,7.5543 5.3549,13.1256 0,5.0047 -1.691,11.5203 -6.0125,18.9802 L 51.211,72.0519 H 70.0001 V 84.1001 H 32.5158 V 79.4174 L 50.9291,49.389 c 3.57,-5.7601 5.3549,-10.6704 5.3549,-14.542 0,-4.3437 -2.1607,-6.3267 -6.858,-6.3267 -3.6639,0 -6.5762,2.0774 -8.8309,6.5156 l -0.5637,1.0387 -8.3611,-7.271 0.2818,-0.5666 C 33.3613,25.0264 35.616,22.288 38.7162,20.2106 41.8164,18.0387 45.1984,17 48.9563,17 c 6.1064,0 10.9916,1.6053 14.4676,4.7214 z"
       fill="#ffffff"
       id="path4" />
    <path
       d="M 4.70152,33.0142 C 12.1232,29.0482 18.0418,24.1379 22.2694,18.2833 L 22.4573,18 h 5.5428 V 84.1001 H 15.8811 V 38.7743 L 3.0105,45.8565 V 33.7696 Z"
       fill="#ffffff"
       id="path6" />
    <path
       d="m 79,40 h -4 v 8 h -8 v 4 h 8 v 8 h 4 v -8 h 8 v -4 h -8 z"
       fill="#ffffff"
       id="path8" />
  </g>
  <g
     clip-path="url(#clip1_710_1225)"
     id="g30"
     transform="matrix(0.63423858,0,0,0.63423858,0.51,18.288071)">
    <rect
       x="103"
       width="100"
       height="100"
       rx="3"
       fill="#000000"
       fill-opacity="0.4"
       id="rect12"
       y="0" />
    <path
       fill-rule="evenodd"
       clip-rule="evenodd"
       d="m 105,63 h 96 v 33 c 0,1.1046 -0.895,2 -2,2 h -92 c -1.105,0 -2,-0.8954 -2,-2 z"
       fill="#ffffff"
       id="path14" />
    <path
       d="m 124.369,13.9786 0.092,-0.4618 c 0.085,-0.4312 0.253,-0.8412 0.494,-1.2063 0.241,-0.3652 0.551,-0.6784 0.912,-0.9217 0.361,-0.2433 0.765,-0.4119 1.19,-0.4962 0.425,-0.0843 0.862,-0.0825 1.287,0.0052 l 35.066,7.204 c 0.856,0.1764 1.607,0.6904 2.09,1.4294 0.483,0.7391 0.656,1.6424 0.483,2.5116 l -0.086,0.4326 z"
       fill="#ffffff"
       id="path16" />
    <path
       fill-rule="evenodd"
       clip-rule="evenodd"
       d="m 122.719,22.2355 -3.016,15.0958 c -0.172,0.8696 0.002,1.7731 0.484,2.5125 0.483,0.7393 1.235,1.2538 2.091,1.4304 l 35.066,7.2021 c 0.424,0.0875 0.861,0.0892 1.286,0.0053 0.424,-0.0841 0.828,-0.2522 1.189,-0.4948 0.361,-0.2426 0.67,-0.555 0.912,-0.9194 0.242,-0.3642 0.41,-0.7734 0.496,-1.2039 l 1.416,-7.092 -0.476,-0.6766 -2.791,-3.2378 -6.649,-2.1665 -5.016,-2.6527 -0.341,-2.7254 z m 26.474,20.1529 1.025,-5.0468 c 0.037,-0.1813 0.144,-0.3405 0.298,-0.4428 0.154,-0.1024 0.342,-0.1394 0.524,-0.1032 l 7.299,1.4803 c 0.09,0.018 0.176,0.0536 0.252,0.1047 0.076,0.0511 0.141,0.1167 0.191,0.1932 0.051,0.0764 0.086,0.162 0.103,0.252 0.017,0.09 0.017,0.1825 -0.002,0.2722 l -1.023,5.0468 c -0.037,0.1813 -0.144,0.3407 -0.298,0.443 -0.154,0.1022 -0.342,0.1394 -0.524,0.1031 l -7.299,-1.4803 c -0.182,-0.037 -0.341,-0.1442 -0.443,-0.2983 -0.102,-0.154 -0.139,-0.3425 -0.103,-0.5239 z"
       fill="#ffffff"
       id="path18" />
    <path
       d="m 163.765,40.3648 -0.634,3.1295 4.157,5.3247 1.911,-0.0884 1.496,-1.6898 -4.142,-2.718 z"
       fill="#ffffff"
       id="path20" />
    <path
       d="m 201,32.5 -8.09,-2.3621 -13.6,-13.914 -14.38,-1.6635 -6.92,0.9344 6.222,1.2613 c 1.1,0.2232 2.067,0.874 2.687,1.8096 0.62,0.9356 0.844,2.0793 0.621,3.1795 l -1.19,5.8706 7.406,2.7093 -0.593,1.6211 -18.524,-6.7761 -5.857,-0.4781 0.531,4.2401 4.09,2.1632 6.966,2.2698 3.161,3.6669 4.245,6.028 8.125,5.3317 13.281,0.0299 11.819,4.1713 z"
       fill="#ffffff"
       id="path22" />
    <path
       d="m 166.103,50.1055 -3.424,-4.3844 -0.184,0.9094 c -0.125,0.669 -0.663,2.1431 -1.811,2.6882 -0.27,0.1793 -0.56,0.3265 -0.863,0.4391 l 3.375,2.8669 3.24,-1.0451 z"
       fill="#ffffff"
       id="path24" />
    <path
       d="m 72.943101,70.859553 q -0.258894,0.887635 -0.565339,1.801689 -0.306446,0.914053 -0.612891,1.717152 L 70.58664,73.749652 q 0.142656,-0.322296 0.311729,-0.734413 0.174357,-0.412116 0.348714,-0.871785 0.174357,-0.459668 0.338147,-0.945754 0.169073,-0.49137 0.322296,-0.977456 z M 72.16642,69.343176 Q 72.023764,69.237505 71.82299,69.1107 71.627498,68.978611 71.395022,68.835955 71.162546,68.6933 70.919503,68.561211 70.681744,68.423839 70.475686,68.307601 l 0.729129,-0.919337 q 0.206058,0.0951 0.443818,0.216625 0.237759,0.116238 0.470235,0.243043 0.232476,0.121522 0.449101,0.243043 0.216626,0.116238 0.364565,0.216626 z m 7.196188,0.929903 h 1.268051 v 1.14653 h -1.268051 v 1.775271 q 0,0.443817 -0.0951,0.692144 -0.08982,0.25361 -0.390982,0.401549 -0.280028,0.153223 -0.681578,0.179641 -0.401549,0.02642 -0.94047,0.02642 -0.0317,-0.258894 -0.132089,-0.591757 -0.0951,-0.32758 -0.206058,-0.586474 0.332863,0.02113 0.639309,0.02113 0.311729,0 0.43325,0 0.105671,0 0.142656,-0.0317 0.04227,-0.0317 0.04227,-0.132089 v -1.754136 h -1.373721 v -1.14653 h 1.373721 v -0.940471 q 0.132089,-0.10567 0.269461,-0.227192 0.137372,-0.126805 0.269461,-0.280028 h -1.474109 v -0.538921 q -0.0951,-0.0634 -0.232476,-0.142656 -0.132089,-0.08454 -0.274744,-0.16379 -0.137373,-0.08454 -0.274745,-0.153223 -0.137372,-0.07397 -0.243043,-0.126805 0.174357,-0.227192 0.332864,-0.528354 h -1.632616 q -0.01057,0.301162 -0.01585,0.602324 -0.0053,0.295878 -0.02642,0.586473 h 1.806972 Q 76.668,68.45554 76.668,68.555927 v 0.311729 q -0.04227,1.268051 -0.0951,2.155687 -0.04755,0.887635 -0.105671,1.484676 -0.05812,0.591757 -0.142655,0.929904 -0.07925,0.332863 -0.184924,0.475519 -0.153223,0.216625 -0.317013,0.311729 -0.16379,0.0951 -0.375132,0.132088 -0.184924,0.0317 -0.464952,0.04227 -0.274744,0.01057 -0.586473,0 -0.02113,-0.258894 -0.100388,-0.586474 -0.07397,-0.322296 -0.216625,-0.570622 0.23776,0.0317 0.433251,0.03698 0.195491,0.0053 0.317012,0.0053 0.0951,0 0.16379,-0.0317 0.07397,-0.03699 0.14794,-0.132089 0.05283,-0.08454 0.100387,-0.306446 0.05284,-0.221908 0.0951,-0.644592 0.04227,-0.422684 0.07397,-1.067276 0.03699,-0.644593 0.06869,-1.574496 h -0.681577 q -0.0634,0.723845 -0.17964,1.41599 -0.116238,0.692144 -0.311729,1.320886 -0.190208,0.628742 -0.475519,1.194081 -0.280028,0.560056 -0.681578,1.025008 -0.153223,-0.216626 -0.396266,-0.454385 -0.237759,-0.23776 -0.480802,-0.380416 0.496653,-0.560055 0.776681,-1.294468 0.285311,-0.739696 0.427967,-1.57978 0.147939,-0.845367 0.190208,-1.75942 0.04755,-0.914054 0.06869,-1.843957 H 72.953668 V 65.96699 l -0.427967,0.575907 q -0.142656,-0.105671 -0.34343,-0.25361 -0.200775,-0.14794 -0.427968,-0.295879 -0.227192,-0.153223 -0.464952,-0.301162 -0.237759,-0.147939 -0.43325,-0.264177 l 0.734413,-0.919337 q 0.195491,0.105671 0.43325,0.23776 0.23776,0.126805 0.470236,0.264177 0.232476,0.137372 0.438534,0.269461 0.206058,0.126805 0.359281,0.221908 l -0.322296,0.454385 h 1.563929 q -0.121522,-0.280028 -0.311729,-0.59704 -0.184924,-0.322296 -0.369848,-0.602324 l 1.194081,-0.443818 q 0.216625,0.301162 0.443818,0.665727 0.227192,0.364564 0.353997,0.634025 l -0.797815,0.34343 h 1.717152 v 0.760831 q 0.216625,-0.517788 0.364564,-1.104261 0.14794,-0.586474 0.232476,-1.204648 l 1.231066,0.206058 q -0.0951,0.549489 -0.227192,1.061992 h 2.229656 v 1.209932 h -2.594221 q -0.08454,0.216626 -0.169073,0.427967 -0.07925,0.211342 -0.169074,0.396266 h 2.013031 l 0.227192,-0.0634 0.760831,0.538921 q -0.269461,0.380415 -0.607608,0.760831 -0.338147,0.375131 -0.692144,0.723845 z M 90.347097,66.812358 Q 90.294262,66.627433 90.188591,66.405525 90.08292,66.183616 89.950832,65.945856 89.824027,65.708097 89.676087,65.470337 89.533432,65.232578 89.390776,65.026519 L 90.310113,64.551 q 0.153222,0.195492 0.311729,0.422684 0.158506,0.227192 0.290595,0.454385 0.137372,0.227192 0.243043,0.449101 0.110954,0.221909 0.174357,0.406833 z m -6.139479,4.760473 h 1.83339 v -0.486086 h -1.83339 z m 2.113418,-3.978509 q 0.0317,-0.142656 0.0634,-0.301162 0.0317,-0.158506 0.05284,-0.317013 h -1.664316 v 0.486087 l 1.516377,-0.132089 z m 4.945398,1.437124 q -0.248326,0.803099 -0.607607,1.574497 -0.359281,0.771397 -0.824233,1.484676 0.121521,0.412116 0.25361,0.639309 0.137372,0.227192 0.290595,0.237759 0.121521,0 0.200774,-0.359281 0.07925,-0.364564 0.132089,-1.056709 0.07397,0.0951 0.195491,0.206058 0.121522,0.105671 0.248327,0.206059 0.132088,0.0951 0.248326,0.17964 0.121522,0.07925 0.195492,0.121522 -0.105671,0.67101 -0.253611,1.104261 -0.147939,0.43325 -0.311729,0.676293 -0.158506,0.243043 -0.332863,0.32758 -0.174357,0.08982 -0.332863,0.08982 -0.454385,-0.02113 -0.792532,-0.34343 -0.332863,-0.317013 -0.591757,-0.92462 -0.322296,0.369848 -0.681577,0.676293 -0.359281,0.31173 -0.739697,0.560056 -0.0951,-0.132088 -0.221909,-0.274744 -0.121521,-0.137372 -0.274744,-0.258894 -1.135962,0.132089 -2.240223,0.25361 -1.104261,0.126805 -1.970762,0.227193 l -0.126805,-0.935188 q 0.549489,-0.05284 1.2522,-0.116238 0.707995,-0.0634 1.484676,-0.153223 l -0.142656,-0.02113 q 0.08454,-0.216625 0.158507,-0.491369 0.07925,-0.274745 0.137372,-0.501937 h -1.146529 q 0.121521,0.227192 0.206058,0.50722 0.08454,0.280028 0.105671,0.464952 l -0.90877,0.195491 q -0.02113,-0.216625 -0.105671,-0.496653 -0.07925,-0.285311 -0.174357,-0.533638 l 0.74498,-0.137372 H 83.25658 v -1.659033 h 3.788302 v 1.659033 h -1.125395 l 0.74498,0.105671 q -0.0951,0.237759 -0.184924,0.438534 -0.08454,0.200775 -0.158507,0.385699 l 1.035575,-0.110955 v 0.142656 q 0.660443,-0.50722 1.225783,-1.209932 -0.153223,-0.702711 -0.264178,-1.553362 -0.105671,-0.850651 -0.190207,-1.843957 l -0.90877,0.116238 -0.100387,-0.67101 -0.776681,-0.137372 0.02113,0.158506 -1.590347,0.142656 v 0.126805 q 0,0.184924 0.05284,0.232476 0.05284,0.04227 0.269461,0.04227 h 0.898203 q 0.153222,0 0.211341,-0.0634 0.0634,-0.06869 0.08454,-0.295879 0.132089,0.08454 0.34343,0.153223 0.216626,0.0634 0.380416,0.0951 -0.05284,0.43325 -0.248327,0.591757 -0.195491,0.153222 -0.639309,0.153222 h -1.157096 q -0.322296,0 -0.544205,-0.04227 -0.216626,-0.04227 -0.338147,-0.142656 -0.116238,-0.105671 -0.16379,-0.274744 -0.04755,-0.174357 -0.04755,-0.449101 v -0.05284 l -0.813666,0.07925 -0.08454,-0.660443 0.898202,-0.07925 v -0.560056 h -1.019724 v 2.118702 q 0,0.575906 -0.0317,1.268051 -0.0317,0.692144 -0.121522,1.405423 -0.08454,0.713278 -0.25361,1.394855 -0.16379,0.681578 -0.422684,1.23635 -0.0634,-0.07397 -0.17964,-0.174357 -0.116238,-0.100387 -0.243043,-0.195491 -0.121522,-0.0951 -0.243043,-0.184924 -0.116238,-0.08454 -0.200775,-0.126805 0.227193,-0.496654 0.353998,-1.093694 0.132088,-0.597041 0.195491,-1.204648 0.06869,-0.612892 0.08454,-1.209932 0.01585,-0.597041 0.01585,-1.114828 v -2.932367 h 2.002464 v -1.764704 h 1.188797 v 0.544205 h 2.282492 v 0.818949 H 85.00015 v 0.40155 h 1.696018 l 0.16379,-0.0317 0.76083,0.132089 q -0.05284,0.290595 -0.132088,0.612891 -0.07397,0.317013 -0.153223,0.597041 l 0.723846,-0.0951 q -0.0634,-1.384289 -0.0951,-2.932367 h 1.167663 q 0.01057,0.723845 0.02642,1.421273 0.01585,0.697428 0.05284,1.357871 l 1.99718,-0.269461 0.153223,1.114828 -2.076433,0.280028 q 0.05284,0.597041 0.105671,1.130679 0.05812,0.533638 0.121521,1.009157 0.507221,-0.940471 0.797816,-1.976046 z m -3.851704,1.157097 h -4.491013 v -0.755547 h 4.491013 z m 6.641416,1.257483 q 0.766114,-0.401549 1.236349,-0.887635 0.475519,-0.49137 0.74498,-1.014441 0.269461,-0.523071 0.364565,-1.056709 0.100387,-0.538921 0.121521,-1.035575 h -2.467415 z m 7.597734,1.590347 q 0,0.517788 -0.1268,0.808383 -0.12152,0.295878 -0.47024,0.443817 -0.33286,0.153223 -0.85593,0.190208 -0.517789,0.03699 -1.241635,0.03699 -0.02113,-0.142656 -0.0634,-0.311729 -0.03699,-0.16379 -0.0951,-0.338147 -0.05812,-0.169074 -0.132089,-0.332863 -0.06869,-0.16379 -0.132088,-0.290595 0.237759,0.01057 0.486086,0.01585 0.248327,0.0053 0.459668,0.0053 0.211342,0 0.380416,0 0.169078,0 0.243038,0 0.15323,-0.01057 0.21135,-0.05812 0.0581,-0.05284 0.0581,-0.200775 v -5.553006 h -2.520255 q -0.02114,0.301163 -0.05284,0.607608 -0.0317,0.301162 -0.100387,0.612891 0.348714,0.311729 0.723845,0.671011 0.380416,0.359281 0.734413,0.718562 0.359281,0.353997 0.676294,0.692144 0.322296,0.332863 0.538926,0.612891 l -1.061997,0.8348 q -0.16379,-0.227192 -0.390982,-0.496653 -0.221909,-0.269461 -0.49137,-0.560056 -0.264177,-0.295878 -0.560056,-0.602324 -0.295878,-0.311729 -0.591757,-0.602324 -0.311729,0.681577 -0.877068,1.32617 -0.560056,0.644592 -1.447691,1.16238 -0.0634,-0.0951 -0.174357,-0.227193 -0.105671,-0.132088 -0.227193,-0.258893 -0.116238,-0.132089 -0.248326,-0.253611 -0.126806,-0.126805 -0.248327,-0.211341 v 3.048605 h -1.289185 v -8.33215 h 3.767167 v -1.796405 h 1.331454 v 1.796405 h 3.788298 z m 3.95738,-7.217322 h -1.06728 v 0.993307 h 1.06728 z m 0,1.954912 h -1.06728 v 1.009157 h 1.06728 z m 0,1.960195 h -1.06728 v 1.019724 h 1.06728 z m 1.12539,2.044732 h -3.28636 v -6.979563 h 3.28636 z m -1.64318,0.327579 q -0.21663,0.681578 -0.56534,1.331454 -0.34343,0.644592 -0.72385,1.08841 -0.0845,-0.0634 -0.20605,-0.153223 -0.11624,-0.08454 -0.24833,-0.17964 -0.12681,-0.08982 -0.26418,-0.16379 -0.13209,-0.07397 -0.23247,-0.132089 0.36984,-0.380415 0.66044,-0.92462 0.29059,-0.544205 0.45438,-1.120112 z m 1.09369,-0.274744 q 0.13209,0.206058 0.26946,0.433251 0.14266,0.227192 0.26418,0.459668 0.12681,0.232476 0.22719,0.454385 0.10567,0.221909 0.16908,0.396266 l -0.99331,0.486086 q -0.0528,-0.184924 -0.15322,-0.4174 -0.10039,-0.232476 -0.22191,-0.475519 -0.11624,-0.243043 -0.25361,-0.480803 -0.13209,-0.237759 -0.2589,-0.454384 z m 5.18316,0.0317 v -0.538921 h -0.84537 v 0.538921 z m -2.77914,0 h 0.81895 v -0.538921 h -0.81895 z m 0,-1.828106 v 0.501937 h 0.81895 V 70.03532 Z m 1.93377,0 v 0.501937 h 0.84537 V 70.03532 Z m -1.11482,-2.213805 h 1.10426 v -0.422684 h -1.10426 z m 0,-1.278618 h 1.10426 v -0.40155 h -1.10426 z m 3.62451,6.218732 h -0.49666 v 0.575906 q 0,0.412117 -0.10038,0.634026 -0.0951,0.221909 -0.36457,0.348714 -0.26946,0.132088 -0.65516,0.158506 -0.3857,0.02642 -0.91405,0.02642 -0.0317,-0.227193 -0.13209,-0.517788 -0.0951,-0.290595 -0.20077,-0.50722 0.31172,0.01057 0.61289,0.01057 0.30644,0 0.40155,0 0.18492,0 0.18492,-0.16379 v -0.565339 h -2.77914 v 1.754137 h -1.1254 v -1.754137 h -0.58647 v -0.898203 h 0.58647 v -2.726309 h 1.94435 v -0.406833 h -2.47799 v -0.908769 h 1.35259 v -0.422684 h -0.91934 v -0.855934 h 0.91934 v -0.40155 h -1.16766 v -0.908769 h 1.16766 v -0.824233 h 1.1254 v 0.824233 h 1.10426 v -0.824233 h 1.14653 v 0.824233 h 1.16766 v 0.908769 h -1.16766 v 0.40155 h 1.00915 v 0.855934 h -1.00915 v 0.422684 h 1.36315 v 0.908769 h -2.49912 v 0.406833 h 2.01303 v 2.726309 h 0.49666 z m 8.86579,-6.953145 h -1.36316 v 0.74498 h 1.36316 z m -2.43572,0 h -1.31032 v 0.74498 h 1.31032 z m -2.38288,0 h -1.29975 v 0.74498 h 1.29975 z m 6.06023,1.696018 h -8.54878 v -2.662907 h 8.54878 z m -6.66255,4.385342 h 4.73934 v -0.544205 h -4.73934 z m 0,-1.299752 h 4.73934 v -0.544205 h -4.73934 z m 0,-1.299752 h 4.73934 v -0.528354 h -4.73934 z m 4.24797,3.407886 q 0.43325,0.142656 0.87178,0.295879 0.43854,0.147939 0.85066,0.306446 0.41211,0.158506 0.77668,0.301162 0.36984,0.147939 0.64987,0.274744 l -1.39485,0.639309 q -0.24833,-0.132089 -0.59176,-0.290595 -0.33815,-0.153223 -0.7397,-0.322296 -0.40155,-0.16379 -0.8348,-0.32758 -0.42796,-0.16379 -0.87178,-0.311729 l 0.87707,-0.56534 h -3.02219 l 0.94047,0.422684 q -0.34871,0.227192 -0.7714,0.433251 -0.4174,0.206058 -0.87178,0.385698 -0.45439,0.184925 -0.91934,0.338147 -0.46495,0.153223 -0.88763,0.269461 -0.0845,-0.0951 -0.20606,-0.227192 -0.11624,-0.126805 -0.24833,-0.258894 -0.13209,-0.126805 -0.26946,-0.248327 -0.13209,-0.116238 -0.22719,-0.206058 0.8031,-0.153223 1.61148,-0.390982 0.81366,-0.23776 1.39485,-0.517788 h -1.66431 V 67.94832 h 7.39168 v 4.749906 z"
       id="text1"
       style="font-weight:bold;font-size:10.8207px;font-family:'SrcHelios Bold';-inkscape-font-specification:'SrcHelios Bold,  Bold';fill:#111d40;stroke-width:0.901725"
       transform="matrix(1.5766937,0,0,1.5766937,-0.80411381,-28.834687)"
       aria-label="游戲内購買" />
  </g>
  <defs
     id="defs38">
    <clipPath
       id="clip0_710_1225">
      <rect
         width="90"
         height="100"
         fill="white"
         id="rect32" />
    </clipPath>
    <clipPath
       id="clip1_710_1225">
      <rect
         width="100"
         height="100"
         fill="white"
         transform="translate(103)"
         id="rect35" />
    </clipPath>
  </defs>
  <path
     id="rect362"
     style="fill:#ffffff;stroke-width:0.0838952"
     d="m 139.58236,18.291813 v 63.41709 h 63.4171 v -63.41709 z m 55.34182,4.046645 h 0.33232 c 0.50337,0 1.32886,0.644241 2.47654,1.932873 0.0805,0.120803 0.12078,0.251658 0.12078,0.3926 -0.16108,0.181216 -0.71471,0.322242 -1.66104,0.422917 l -0.57383,-0.120754 h -0.93629 c -0.26176,0 -0.46321,0.04017 -0.60415,0.120754 l -0.54368,-0.120754 -1.38918,0.120754 -1.14766,-0.120754 c -0.74501,0 -1.11752,0.291911 -1.11752,0.875818 v 1.268424 c 0,0.08051 0.13084,0.221578 0.3926,0.422924 0.92621,-0.08051 1.59064,-0.120763 1.99333,-0.120763 h 2.29532 l 1.17799,0.120763 c 0.46311,-0.704729 0.98651,-1.057057 1.57042,-1.057057 1.51011,0.624186 2.386,1.258411 2.62763,1.902727 0,0.644316 -0.64425,0.96644 -1.93287,0.96644 -1.28862,1.248362 -2.66791,1.872573 -4.13774,1.872573 l -0.57385,-0.120771 c -0.12081,0 -0.58397,0.04026 -1.38936,0.120771 -0.54364,0 -1.10742,-0.191272 -1.69134,-0.573839 -0.30202,0 -0.48312,1.077185 -0.54352,3.231612 -0.14093,0.02012 -0.26178,0.261807 -0.36244,0.724908 0,0.120812 0.27171,0.402708 0.81535,0.845681 v 0.09061 l -0.12077,0.603987 c 1.51012,0.765128 3.41297,1.389339 5.70835,1.872572 0.9866,0.221486 2.06378,0.372529 3.2316,0.453069 0.30202,-0.06039 0.61412,-0.09061 0.93629,-0.09061 0.10071,0 0.23152,0.130855 0.3926,0.39261 v 0.422745 l -2.839,1.933043 c -2.29539,-1.067147 -3.52362,-1.600734 -3.68469,-1.600734 h -0.39259 v 0.120763 c -8.6e-4,0 -0.003,-1.61e-4 -0.003,-1.69e-4 -0.0332,0.604122 -0.32418,0.906299 -0.87272,0.906299 h -0.21137 c -0.72484,0 -1.09738,-0.04044 -1.11751,-0.120921 -0.68459,0.08051 -1.2382,0.120921 -1.66103,0.120921 h -1.96318 c -0.66447,0 -1.3591,0.04026 -2.08395,0.120771 -1.10743,-0.10068 -1.6612,-0.271755 -1.6612,-0.513371 0,-0.100681 0.14102,-0.271912 0.42292,-0.51353 0.10072,0 0.15091,0.04026 0.15091,0.120762 1.18796,-0.08051 2.05384,-0.120762 2.59747,-0.120762 h 1.96321 c 0.94633,-0.281896 1.85228,-0.634217 2.71808,-1.057056 v -0.392601 c 0,-0.08051 -0.94636,-0.724941 -2.83902,-1.933041 -4.22833,2.134302 -7.45987,3.674635 -9.69484,4.620969 l -0.81552,-0.09061 -0.60414,0.09061 v -0.332142 c 0.60404,0 2.35584,-0.926295 5.25526,-2.778703 2.05375,-0.946343 3.72493,-2.06375 5.01358,-3.352373 v -5.345888 c 0,-0.342289 -0.1711,-0.634201 -0.51339,-0.875818 l -5.31555,0.241525 c -0.12081,-0.08051 -0.34245,-0.120762 -0.66461,-0.120762 0,0.161083 -0.0502,0.241692 -0.15091,0.241692 l 0.15091,0.301994 c -0.24163,1.630921 -0.49332,2.446403 -0.75506,2.446403 -0.38255,0.36243 -0.83554,0.634142 -1.35904,0.815356 -0.32217,-0.140941 -0.49324,-0.271797 -0.51336,-0.392609 0,-0.201345 0.38253,-1.197915 1.14766,-2.989911 0.18121,-1.127558 0.39268,-1.69135 0.6343,-1.69135 0.28187,0 0.69463,0.191262 1.23826,0.573831 0.82554,-0.06039 2.68798,-0.130836 5.5874,-0.211378 l 0.27184,-0.392769 v -1.510117 c 0,-0.201345 -0.37251,-0.342213 -1.11749,-0.422755 -0.62419,0.08052 -1.00674,0.16099 -1.14767,0.241524 l -0.69477,-0.120762 -1.0269,0.120762 -0.57382,-0.120762 -0.81536,0.120762 c -1.10742,-0.120805 -1.6612,-0.291877 -1.6612,-0.513362 v -0.33214 l 0.0907,-0.18123 c 2.87929,-0.08052 5.05384,-0.120933 6.52369,-0.120933 h 3.80562 c 0.28186,0 0.62402,-0.04016 1.02671,-0.120752 0.10071,0.08051 0.38258,0.120752 0.84569,0.120752 h 0.12091 c 0.36243,-0.120802 0.87584,-0.664396 1.54029,-1.630877 z m -1.57369,17.30573 c 0.003,-0.039 0.003,-0.07908 0.003,-0.120602 v -0.06048 c 0,-0.181216 -0.36251,-0.513354 -1.08738,-0.996588 h -0.18123 v 0.42275 c 0.42174,0.502074 0.84358,0.753604 1.26532,0.7549 z M 174.96052,23.033052 c 2.25509,0.34229 3.38267,1.167789 3.38267,2.476559 0,0.926204 -0.59399,1.43975 -1.78195,1.540423 -0.32216,0 -0.76511,-0.835672 -1.32888,-2.506862 -0.68458,-0.442964 -1.02691,-0.845698 -1.02691,-1.208126 0.26174,-0.201355 0.51345,-0.301994 0.75507,-0.301994 z m -29.41715,0.301994 c 2.67793,0.201345 4.01699,1.047039 4.01699,2.537019 0,0.744989 -0.41293,1.308781 -1.23846,1.691341 h -0.60398 c -0.34229,0 -0.78524,-0.885916 -1.32887,-2.657783 -0.94635,-0.523504 -1.41952,-0.845627 -1.41952,-0.966432 l -0.0301,-0.211376 c 0,-0.261758 0.20131,-0.392769 0.60398,-0.392769 z m 18.72539,0.996746 c 0.72486,0 1.66116,0.62421 2.80886,1.872572 0.22148,0.221486 0.33229,0.442963 0.33229,0.664448 0,0.140944 -0.0604,0.302001 -0.18122,0.483217 -0.28189,0.281886 -0.75505,0.634215 -1.4195,1.057048 -0.16108,0.503373 -0.28191,1.026943 -0.36245,1.570586 -0.60405,3.624274 -2.04374,7.228349 -4.31896,10.81235 2.87926,2.275238 5.45656,3.453226 7.73179,3.533768 l 1.60074,-0.241686 c 0.16108,0 0.29193,0.100639 0.3926,0.301985 0.0403,0.08051 0.0605,0.151137 0.0605,0.211539 0,0.201354 -0.1006,0.412655 -0.30197,0.634142 l -1.84244,1.570577 c -0.38255,0.724851 -0.8155,1.087363 -1.29874,1.087363 -1.02688,-0.563774 -2.03362,-1.057132 -3.02023,-1.47997 -2.11415,-1.369168 -3.55368,-2.557176 -4.31879,-3.563913 l -0.39278,-0.03016 c -1.06715,0.966466 -2.49668,1.973218 -4.28868,3.020226 -1.36916,0.724859 -3.00013,1.409489 -4.8928,2.053804 l -0.99657,0.271679 -0.21155,0.03033 c -0.2819,0 -0.48317,-0.09063 -0.60398,-0.271838 l -0.0301,-0.151084 c 0,-0.201347 0.23147,-0.402634 0.69457,-0.60398 0.62419,-0.201344 1.39946,-0.513453 2.32566,-0.936285 2.5571,-1.389306 4.68127,-3.100719 6.37261,-5.134339 l -2.0538,-4.288824 c -1.14768,-3.463197 -1.80195,-6.604287 -1.96303,-9.423162 l 0.0603,-0.422754 c -0.72486,0 -1.26847,-0.02021 -1.63089,-0.06048 -0.28188,-0.06039 -0.42292,-0.25168 -0.42292,-0.573839 0,-0.241618 0.10082,-0.392659 0.30216,-0.453061 l 1.20796,0.06048 h 8.75871 l 1.47998,-1.449657 c 0.12079,-0.100671 0.26166,-0.151077 0.42275,-0.151077 z m -3.26177,2.597321 -6.19155,0.06048 0.27185,1.570588 0.81553,3.171143 c 0.46309,1.469848 1.31879,3.463317 2.56716,5.980172 0.22148,0.402699 0.43294,0.755028 0.63429,1.057058 h 0.42276 c 1.8524,-3.724946 2.91958,-7.127743 3.20147,-10.208372 0.0201,-0.281897 0.0503,-0.503373 0.0905,-0.664456 -0.0201,-0.34229 -0.15099,-0.583957 -0.39262,-0.7249 -0.22148,-0.161084 -0.69464,-0.241693 -1.4195,-0.241693 z m -9.63454,0.573991 c 0.2215,0 0.40275,0.150883 0.54368,0.452901 0,0.302028 -0.63437,1.771935 -1.90287,4.409592 0,0.4027 -0.63425,2.094083 -1.90274,5.074041 -0.84565,2.174564 -1.26841,3.503434 -1.26841,3.986675 0.74498,2.496715 1.11752,4.037057 1.11752,4.620961 v 0.785211 c 0,0.906071 -0.56381,1.520268 -1.69137,1.842424 -0.64431,0 -1.24848,-0.46315 -1.81225,-1.389354 0,-0.543643 0.22164,-1.802079 0.66459,-3.7753 0,-1.228221 -0.6948,-2.09394 -2.0841,-2.597312 0,-0.78526 0.73504,-1.17798 2.20486,-1.17798 1.99337,-3.644402 3.64435,-6.996795 4.95312,-10.057292 0.68458,-1.449708 1.0773,-2.174566 1.17797,-2.174567 z m 27.27275,0.694594 h 0.12077 c 0.0805,0 0.17114,0.10065 0.27182,0.301994 v 0.271839 c -0.28188,0 -0.9363,2.094117 -1.96317,6.282164 -0.76513,4.067243 -1.14766,6.654548 -1.14766,7.761967 0.84565,2.859152 1.26842,4.469918 1.26842,4.832347 -0.3423,1.187951 -0.89592,1.781956 -1.66103,1.781956 h -0.12094 c -1.10742,-0.100671 -1.66102,-0.65445 -1.66102,-1.661194 0.22148,-0.885933 0.33213,-1.81207 0.33213,-2.778543 0,-1.047018 -0.61401,-1.983329 -1.84225,-2.808859 v -0.301994 c 0,-0.201344 0.45297,-0.332198 1.35903,-0.392601 0.8658,-1.469845 1.95317,-4.600912 3.26194,-9.393015 0.6846,-2.536994 1.27859,-3.835651 1.78196,-3.896061 z m 11.26541,0 -0.15107,0.271847 v 0.150908 c 0,0.120813 0.0302,0.181231 0.0906,0.181231 l -0.0906,0.151079 v 0.694592 c 0,0.604046 0.14104,0.936346 0.4229,0.996749 0.50338,-0.161077 0.84571,-0.241684 1.02692,-0.241684 h 1.75164 c 0.22148,0 0.6042,-0.151052 1.14783,-0.45307 l 0.57383,0.120922 h 0.72475 c 0.40269,-0.342291 0.60414,-0.714811 0.60414,-1.117509 0,-0.221487 -0.0906,-0.473168 -0.27184,-0.755065 -0.78527,0.08052 -1.36924,0.120771 -1.75182,0.120771 h -1.72149 c -0.50336,0 -1.28863,-0.04026 -2.35579,-0.120771 z m -4.10743,1.510118 c 0.50339,0.221486 0.86571,0.513397 1.08719,0.875825 v 0.120762 c 0,0.342299 -1.20803,0.51354 -3.62421,0.51354 h -0.69475 c -0.0805,0 -0.1812,-0.10065 -0.30198,-0.301994 v -0.120931 c 0,-0.221484 0.92629,-0.473175 2.7787,-0.755053 0,-0.100671 0.25169,-0.211334 0.75505,-0.332149 z m -42.49484,0.362456 c 2.57726,0.362426 3.8659,1.187925 3.8659,2.476557 0,0.4027 -0.15104,0.785235 -0.45307,1.147666 -0.30202,0.322157 -0.60394,0.483215 -0.90596,0.483215 -0.68459,0 -1.2988,-0.825498 -1.84243,-2.476559 -0.78525,-0.322149 -1.17782,-0.704694 -1.17782,-1.147656 0,-0.221484 0.17108,-0.382544 0.51338,-0.483223 z m 29.68899,0.09061 c 1.73159,0.342299 2.59731,1.208014 2.59731,2.59732 0,0.04026 0.0302,0.191315 0.0906,0.453071 -0.40272,0.74499 -0.83549,1.11751 -1.29859,1.11751 -0.72485,0 -1.20819,-0.956512 -1.44982,-2.86932 -0.44295,-0.362429 -0.67446,-0.61412 -0.69458,-0.755064 0.10071,-0.362429 0.35235,-0.543517 0.75505,-0.543517 z m 21.68533,2.537019 c 0.56377,0 1.11738,0.342147 1.66104,1.026733 v 0.271848 c -0.38258,0.06039 -0.66447,0.09061 -0.84568,0.09061 -1.71147,0 -3.02014,0.08062 -3.92622,0.241684 -0.66444,-0.181214 -0.99673,-0.352456 -0.99673,-0.513531 0,-0.322158 1.07718,-0.53346 3.2316,-0.634133 0,-0.140944 0.29209,-0.302002 0.87599,-0.483216 z m -9.24194,0.241525 c 0.34231,0.100682 0.78524,0.402767 1.3289,0.906139 v 0.181232 c 0,0.120804 -0.21145,0.221444 -0.6343,0.301985 -0.18122,0 -0.48331,-0.04018 -0.90613,-0.120762 -0.88594,0.08052 -1.70126,0.120762 -2.44625,0.120762 -0.66444,0 -1.13761,-0.221477 -1.41949,-0.664447 v -0.03033 h 2.3556 c 0.18121,0 0.7552,-0.231493 1.72167,-0.694594 z m 8.78887,8.426414 c 0.8658,0 1.61085,0.523572 2.23504,1.570579 -0.30203,0.583914 -0.45308,1.077271 -0.45308,1.479972 0,0.442971 0.0402,1.056998 0.12076,1.842258 0,0.966473 -0.9061,1.721536 -2.71823,2.265182 -0.28191,0 -0.96653,-0.614037 -2.05381,-1.842269 -0.68458,-0.543633 -1.1778,-0.815514 -1.4798,-0.815514 v -0.06048 c 0.0201,-0.120805 0.0806,-0.181063 0.18123,-0.181063 h 0.93629 c 0.26174,0 0.90598,0.08044 1.93286,0.241532 0.50338,0 0.79529,-0.795291 0.87582,-2.385943 -0.16108,-0.382562 -0.33216,-0.594022 -0.51337,-0.634291 h -3.2316 c -0.18121,0 -0.33227,0.04017 -0.45307,0.12076 -0.12081,-0.08051 -0.27185,-0.12076 -0.45306,-0.12076 h -0.12078 c -0.28189,0 -0.42293,0.906105 -0.42293,2.71824 v 0.483217 c 0,0.604047 0.0403,1.399337 0.12094,2.385942 -0.28189,0.74499 -0.72484,1.117511 -1.32889,1.117511 -0.70473,0 -1.10745,-0.483175 -1.20814,-1.449649 l 0.48323,-4.983425 -0.30198,-0.151077 c -4.10752,0 -6.16141,-0.171073 -6.16141,-0.513371 v -0.09061 c 0.12082,-0.281894 0.32226,-0.422923 0.60413,-0.422923 3.44308,0.161084 5.86933,0.241693 7.27875,0.241693 0.58392,0 1.62088,-0.08062 3.11087,-0.241693 0.0604,0 0.29191,0.04035 0.69458,0.120932 0.72485,-0.08051 1.50011,-0.312201 2.32565,-0.694763 z m -45.54523,8.57061 c 0.26175,0.02012 1.31891,0.453078 3.17133,1.298741 0,0.06039 0.0805,0.12082 0.24152,0.181221 -0.0201,0.543645 -0.34226,0.966408 -0.96644,1.268435 -0.60405,0.281887 -0.92618,0.563782 -0.96645,0.84567 -0.0201,0.261756 -0.77517,1.570588 -2.26517,3.926368 v 0.392607 c 0,0.342291 0.38254,0.603995 1.14766,0.785211 l 0.2417,0.362456 v 0.543677 c -0.54364,0.261756 -0.81553,0.724908 -0.81553,1.389355 l 0.2417,0.78521 c -0.0805,1.006746 -0.12094,1.600741 -0.12094,1.781955 0.12083,0.543644 0.18124,0.936201 0.18124,1.177819 l -0.0301,0.09061 c 0,0.503381 -0.0402,1.016929 -0.12077,1.540433 0.0604,0.221484 0.0906,0.493205 0.0906,0.815364 l -0.0906,0.181222 0.0906,0.181231 c -0.0805,0.825532 -0.12093,1.349095 -0.12093,1.57058 0.16108,0.644316 0.24169,1.248336 0.24169,1.812111 l -0.12076,0.815525 c 0.0402,0.885932 0.1107,1.328886 0.21137,1.328886 l -0.0605,0.603977 v 3.443159 c -0.38257,0.402701 -0.74489,0.60398 -1.0872,0.60398 l -0.87601,-0.03016 c -0.32214,-0.201354 -0.55363,-0.553842 -0.69457,-1.057216 0.0805,-0.966474 0.18119,-3.181251 0.30198,-6.644457 l -0.0603,-0.634293 c 0.12081,-0.201346 0.18122,-0.432848 0.18122,-0.694595 0.0402,-1.067148 0.0806,-1.691356 0.12077,-1.87257 -0.0402,-0.302028 -0.0806,-1.389221 -0.12077,-3.26176 l 0.0905,-0.362462 c -0.0402,-0.221487 -0.0603,-0.694646 -0.0603,-1.419503 v -0.09061 c 0,-0.221484 -0.0402,-0.755071 -0.12077,-1.600732 h -0.18122 l -1.44981,2.114095 -1.63088,2.174566 c -0.16109,0.120811 -0.46316,0.241641 -0.90613,0.362455 l -0.0603,-0.181233 v -0.271837 c 0.0201,-0.161084 0.71477,-1.298681 2.08394,-3.412836 1.79202,-3.946448 2.68795,-6.241826 2.68795,-6.886142 0.48322,-0.785268 0.79532,-1.842417 0.93627,-3.171321 0.32217,-0.523504 0.54365,-0.785201 0.66444,-0.785201 z m 6.97677,0.332307 h 0.51351 c 1.71149,0.281888 2.56718,0.563783 2.56718,0.845672 v 0.543516 l -0.99677,1.389356 c -0.0201,1.590651 -0.0702,2.738433 -0.15089,3.443151 0.0403,0.241616 0.0603,0.452919 0.0603,0.634133 0,0.06039 -0.0302,0.141011 -0.0906,0.241693 0.0402,0.241607 0.0605,0.765179 0.0605,1.570577 v 0.905971 l -0.12077,1.419503 h -0.0906 l 0.15091,0.362454 h 0.45307 c 3.96657,-3.322253 5.94985,-5.285341 5.94985,-5.889395 l 0.66445,-0.724908 c 0.50337,0.02012 0.93632,0.332248 1.29874,0.936287 1.22822,0.583913 1.84243,1.268544 1.84243,2.053804 -1.38931,0.201344 -2.37603,0.533484 -2.95993,0.996587 -0.94635,0.604046 -1.42953,0.98658 -1.44967,1.147663 h -0.0303 c -0.34229,0 -0.74487,0.292071 -1.20796,0.875984 -1.38932,0.845662 -2.14437,1.268427 -2.2652,1.268427 -0.18121,0.281885 -0.68458,0.624202 -1.51011,1.026901 h -0.45306 c -0.24162,0.38256 -0.36245,0.694669 -0.36245,0.936286 0,0.100671 0.0302,0.191298 0.0906,0.27184 l 0.0301,2.144417 c 0,0.201347 -0.0302,0.352229 -0.0906,0.452902 0.0807,0.724849 0.12094,1.671184 0.12094,2.839005 l -0.0303,1.661194 c 0,1.026885 0.22148,1.540272 0.66444,1.540272 0.32216,0.140944 0.97658,0.241752 1.96319,0.302155 1.2685,-0.04026 2.21483,-0.06048 2.83901,-0.06048 0,-0.140944 0.23165,-0.211378 0.69477,-0.211378 l 0.63413,0.09061 c 1.55036,-0.463101 2.47668,-1.06728 2.77869,-1.81227 l 0.57383,-2.748396 0.27185,-0.181225 0.63413,0.03033 c 0.12081,0.02012 0.18123,0.08052 0.18123,0.181224 l -0.0301,2.204712 c 0,0.10067 0.25168,0.755096 0.75505,1.963188 l -0.0301,0.271838 c -0.0201,1.22823 -0.68456,1.983293 -1.99334,2.265182 -0.76513,0.161074 -1.14784,0.30194 -1.14784,0.422753 l -0.60396,-0.09061 c -0.24162,0 -0.62417,0.05038 -1.14767,0.151077 -0.66446,-0.06039 -1.25845,-0.100786 -1.78195,-0.120922 -0.24164,0 -0.42289,0.03025 -0.54369,0.09061 -0.0604,0 -0.0906,-0.03024 -0.0906,-0.09061 l -0.42276,0.09061 h -0.81552 c -1.04701,0 -1.8725,0.06039 -2.47657,0.181232 l -0.87579,-0.03016 c -1.63094,-0.704719 -2.44642,-1.258496 -2.44642,-1.661186 v -0.03014 c -0.0604,0 -0.0906,-0.03024 -0.0906,-0.09061 0,-1.389307 0.0702,-2.245009 0.21137,-2.567166 -0.0604,-0.120813 -0.0906,-0.241642 -0.0906,-0.362455 0.0201,-0.201346 0.0604,-0.352397 0.12076,-0.453071 l -0.15092,-1.781955 c 0.0604,-0.281888 0.12082,-0.422756 0.18122,-0.422756 -0.0604,-0.80539 -0.11079,-1.278568 -0.15106,-1.41951 0.0604,-0.281879 0.10061,-0.96651 0.12076,-2.053795 0,-0.100671 -0.0604,-0.161092 -0.18124,-0.181224 h -0.72475 c 0,0.241617 -0.6746,0.614137 -2.02364,1.11751 l -0.90597,0.211378 h -0.0906 c -0.22149,-0.120813 -0.3323,-0.261672 -0.3323,-0.422755 0,-0.463103 0.77525,-0.926255 2.32564,-1.389358 0.94634,-0.543643 1.57055,-0.966397 1.87257,-1.268425 v -4.711575 c 0.0805,-0.503373 0.12076,-0.795444 0.12076,-0.875984 -0.10072,-0.241617 -0.15108,-0.634177 -0.15108,-1.177819 0,-0.604045 0.0302,-1.006779 0.0906,-1.208125 -0.18123,-2.597397 -0.27184,-4.177957 -0.27184,-4.741732 0.0604,0 0.24166,-0.100638 0.54367,-0.301993 z m 40.44103,0.362287 h 0.57383 c 0.0805,0 0.2014,0.05038 0.36246,0.151075 0.16108,-0.100671 0.26172,-0.151075 0.30199,-0.151075 1.02688,0.402698 1.64091,0.825621 1.84225,1.268594 v 0.422746 c -0.38255,0.583913 -0.69466,0.875993 -0.93628,0.875993 v 2.929621 c 0,0.100671 -0.0702,0.150917 -0.21138,0.150917 l 0.21138,1.117508 -0.0906,0.664448 c 0.0604,0.865802 0.0906,1.469821 0.0906,1.812102 l -0.0906,0.573832 c 0.0604,0.100671 0.0906,0.211496 0.0906,0.332308 h -0.12076 c 0.0805,0.161076 0.12076,0.281913 0.12076,0.362454 -0.12082,0.4027 -0.18123,0.684604 -0.18123,0.845671 0,0.161084 0.0905,0.513405 0.27185,1.057048 -0.12081,1.812146 -0.18123,2.929544 -0.18123,3.352385 l 0.0906,1.268585 c -0.0604,0.221484 -0.0906,0.493364 -0.0906,0.815523 0.10072,0.181215 0.22152,0.704618 0.36246,1.570421 -0.0604,0.543643 -0.0906,0.956392 -0.0906,1.238277 0,0.60403 0.0302,1.59076 0.0906,2.959935 0,1.389298 -0.58384,2.396059 -1.75167,3.020236 -1.18792,0 -1.78194,-0.231668 -1.78194,-0.694753 -0.94635,-0.543644 -1.64098,-0.845578 -2.08394,-0.90598 l -0.24169,-0.27184 -0.33216,0.15091 c -0.2416,0 -0.40267,-0.110654 -0.48321,-0.332141 v -0.664447 l 0.12077,-0.211368 c 0.5839,0.120803 1.4396,0.181224 2.56717,0.181224 1.10741,0 1.66119,-0.342325 1.66119,-1.026903 0.12079,-0.624177 0.21143,-1.480047 0.27185,-2.567325 l -0.0906,-0.211377 0.0906,-0.483218 c -0.0604,-0.966483 -0.0906,-1.671149 -0.0906,-2.114104 0,-0.08051 0.0301,-0.18135 0.0906,-0.302153 l -0.0906,-0.543517 c 0,-0.78525 -0.0302,-1.751786 -0.0906,-2.899473 l 0.18122,-0.39261 -0.0906,-1.11751 c 0,-0.201355 0.0301,-0.432837 0.0906,-0.694594 l -0.18122,-3.443151 c 0,-0.08051 0.0302,-0.181189 0.0906,-0.302001 -0.12081,-2.013473 -0.21143,-3.221514 -0.27184,-3.624214 0.12081,-0.302018 0.18123,-0.714926 0.18123,-1.238439 -0.12082,-0.08052 -0.27186,-0.946252 -0.45307,-2.597314 0.18121,-0.181212 0.27184,-0.292035 0.27184,-0.332306 z m -11.38636,0.785368 h 0.33233 c 0.6443,0.221486 1.23814,0.765087 1.78179,1.630889 0.0805,0 0.18134,0.100639 0.30215,0.301985 0,0.261757 -0.28189,0.432998 -0.84568,0.51354 -0.90606,-0.04026 -1.3592,-0.130904 -1.3592,-0.271848 -0.44295,0.161083 -0.69465,0.241532 -0.75507,0.241532 l 0.0906,0.03033 c -1.1477,0 -1.91277,0.03024 -2.29534,0.09061 l -0.48323,-0.09061 -0.45307,0.09061 -1.99332,-0.181222 c -0.26176,0.120803 -0.43298,0.181222 -0.51353,0.181222 -0.22147,0 -0.8053,-0.06039 -1.75165,-0.181222 -0.40268,0.06039 -0.81545,0.09061 -1.23827,0.09061 -0.16108,-0.06039 -0.24169,-0.302079 -0.24169,-0.724909 0.14093,-0.261756 0.3524,-0.392607 0.6343,-0.392607 l 1.11751,0.09061 c 0.22148,0 0.45296,-0.03025 0.69459,-0.09061 2.31551,0.08051 3.47331,0.22141 3.47331,0.422755 0.42283,-0.221478 0.82558,-0.332139 1.20812,-0.332139 h 0.66446 l 0.93627,-1.147664 c 0.18121,0 0.41272,-0.09061 0.69459,-0.271839 z m 6.94662,1.812112 h 0.12077 c 1.14769,0.523512 1.7315,0.885849 1.75164,1.087202 v 0.66444 c 0,0.241624 -0.13085,0.563916 -0.3926,0.966601 v 1.147662 c 0,0.281888 -0.0604,0.422756 -0.18123,0.422756 0.0604,0.78526 0.0906,1.570537 0.0906,2.355788 0,0.221485 -0.0906,0.453146 -0.27184,0.694762 v 0.513372 c 0.20136,0 0.36257,0.946327 0.48337,2.839004 l -0.12091,1.208125 c 0.0806,0.140952 0.12091,0.231576 0.12091,0.271847 -0.14094,0.02012 -0.21153,0.100587 -0.21153,0.241524 0,1.369174 0.0705,3.000129 0.21153,4.892807 -0.14094,0.140953 -0.48326,0.362438 -1.02691,0.664448 l 0.0301,0.03033 -0.81553,-0.09061 0.0303,-1.298748 c -0.0604,-2.557117 -0.0907,-4.409558 -0.0907,-5.557248 0,-0.261756 0.0605,-0.583871 0.18124,-0.966441 -0.1208,-0.382559 -0.18124,-0.634251 -0.18124,-0.755054 l 0.0907,-1.328895 c -0.1208,-3.583985 -0.30204,-6.080843 -0.54368,-7.490288 0.3423,-0.342281 0.58398,-0.513364 0.72492,-0.513364 z m -4.04714,1.630879 h 0.45307 c 1.10742,0.966466 1.66103,1.68131 1.66103,2.144411 -0.24161,0.241626 -0.36246,0.382486 -0.36246,0.422756 h -0.1509 c -0.60405,-0.140944 -1.01678,-0.211369 -1.23829,-0.211369 0,0.201346 -0.0302,0.301984 -0.0905,0.301984 -0.56379,0 -1.36926,-0.03024 -2.41627,-0.09061 l -0.81551,0.09061 c -0.3423,-0.06039 -0.96634,-0.09061 -1.87242,-0.09061 0,0.241616 0.13086,0.543711 0.39261,0.906139 0.0604,0.100671 0.0905,0.231526 0.0905,0.39261 -0.20135,0.161074 -0.45303,0.241684 -0.75505,0.241684 0,-0.08051 -0.15104,-0.120922 -0.45308,-0.120922 0,0.261747 -0.61419,0.95656 -1.84242,2.084109 0,0.08052 -0.19127,0.342239 -0.57383,0.78521 v 0.51337 c 0.32216,0 0.60406,0.463145 0.84568,1.389356 v 0.785203 c -0.46311,0.704725 -0.83562,1.057215 -1.11752,1.057215 h -0.12078 c -0.72483,-0.34229 -1.08719,-0.916272 -1.08719,-1.721656 -1.00674,-1.590659 -1.80219,-2.385943 -2.3861,-2.385943 l -0.30198,-0.332308 c 0.12079,-0.382561 0.22144,-0.583846 0.30198,-0.603977 0.54364,0.04026 0.81553,0.23154 0.81553,0.573831 0.84566,0.06039 1.52011,0.09061 2.02348,0.09061 0.24162,-0.161083 0.87601,-1.147639 1.90289,-2.959775 0.22147,0 0.33214,-0.08061 0.33214,-0.241693 l -0.24152,-0.483216 -1.41968,0.181224 c 0,-0.100671 -0.12069,-0.151077 -0.36227,-0.151077 -0.48327,0 -2.1244,0.03024 -4.92314,0.09061 -0.82553,0 -1.37913,-0.140869 -1.66103,-0.422755 v -0.181223 c 0,-0.42284 0.2617,-0.634292 0.78519,-0.634292 0.76513,0.261748 1.25849,0.392598 1.47998,0.392598 l 0.63431,-0.18123 c 0.58388,0.06039 1.57046,0.09061 2.95976,0.09061 1.38932,0 2.235,0.03024 2.53701,0.0906 3.90617,0 5.85925,-0.251687 5.85925,-0.755063 0.0403,0 0.4128,-0.352337 1.11752,-1.057046 z m -2.68809,4.681432 h 0.51353 c 0.42284,0.463102 1.02686,0.865835 1.81211,1.208133 0.18122,0.261748 0.27184,0.483233 0.27184,0.664437 l -0.87582,0.815365 h -0.72492 l -0.45306,-0.241532 c 0,0.8054 -0.27188,1.348992 -0.81553,1.630888 -0.12081,0.563775 -0.96632,1.57052 -2.53684,3.020228 -0.10071,0 -0.60406,0.42278 -1.51011,1.268434 -2.17458,0.986608 -3.60425,1.771882 -4.28885,2.35579 -0.40268,0 -0.95647,0.221477 -1.66118,0.664447 -0.18121,0 -0.60399,0.161218 -1.26842,0.483376 -0.0604,0 -0.34231,0.06022 -0.84568,0.181062 l -0.21138,-0.301985 v -0.18123 c 0,-0.684579 0.87591,-1.147572 2.62764,-1.389189 0.6443,-0.543642 1.59065,-1.077238 2.83901,-1.600733 0,-0.161075 0.76506,-0.795317 2.29532,-1.902718 0,-0.100681 0.25167,-0.191305 0.75505,-0.271847 0,-0.563775 0.27189,-1.016902 0.81553,-1.359201 0.78527,-0.885932 1.65098,-2.073935 2.59732,-3.563922 l 0.36244,-0.271669 -0.0905,-0.211547 z m 0.90614,5.285417 c 0.4631,0.08052 1.20814,0.533511 2.23502,1.35904 0,0.865785 -0.22147,1.298741 -0.66444,1.298741 -0.30202,0.322158 -0.88602,0.755105 -1.75181,1.29874 0,0.241616 -0.45298,0.694585 -1.35903,1.359043 0.10071,0.281885 0.34218,0.553776 0.72474,0.815514 h 0.96644 c 1.63092,0.583914 2.44638,1.107319 2.44638,1.57042 0.62419,0.362428 0.93629,1.228322 0.93629,2.597479 l -0.84566,0.996587 h -0.81536 c -0.44295,-0.382559 -0.66445,-0.946182 -0.66445,-1.691181 h 0.12077 c -0.24162,-0.322157 -0.49331,-0.825521 -0.75506,-1.510108 l -1.93304,-1.781965 c -0.2416,0 -0.55356,-0.05038 -0.93612,-0.151077 0,0.221486 -0.67461,0.865886 -2.02364,1.933042 -0.44297,0.483233 -1.29869,1.057047 -2.56718,1.721487 -0.26175,0.302027 -0.76513,0.513488 -1.51012,0.634301 -0.62417,0.30202 -1.28861,0.563717 -1.99332,0.785203 -0.36244,0.422837 -0.97664,0.634299 -1.84244,0.634299 -0.1007,-0.161083 -0.15091,-0.40275 -0.15091,-0.724908 0.46312,-0.523512 1.07713,-0.78521 1.84226,-0.78521 l 3.77529,-2.446404 c 0.26176,-0.342289 1.00682,-0.986706 2.23504,-1.933032 1.9128,-1.812144 2.86914,-3.000147 2.86914,-3.563922 1.10744,-1.590642 1.66121,-2.395958 1.66121,-2.416089 z" />
</svg>
